<?xml version="1.0" encoding="utf-8"?>
<!DOCTYPE svg PUBLIC "-//W3C//DTD SVG 1.1//EN" "http://www.w3.org/Graphics/SVG/1.1/DTD/svg11.dtd">
<svg version="1.1" id="Layer_1" xmlns="http://www.w3.org/2000/svg" xmlns:xlink="http://www.w3.org/1999/xlink" x="0px" y="0px"
	 width="19.84px" height="19.84px" viewBox="0 0 19.84 19.84" enable-background="new 0 0 19.84 19.84" xml:space="preserve">
<g>
	<path fill="transparent" d="M9.891,2.216c-0.816-0.417-1.637-0.361-2.4,0.141c-0.623,0.409-1.006,0.996-1.05,1.749
		C6.407,4.679,6.436,5.255,6.438,5.83c0,0.045,0.01,0.09,0.02,0.187C7.241,5.232,7.989,4.481,8.708,3.76
		c0.831,0.8,1.661,1.6,2.495,2.402c0.002-0.017,0.01-0.045,0.01-0.073c-0.002-0.619,0.016-1.238-0.014-1.855
		C11.156,3.315,10.704,2.631,9.891,2.216z"/>
	<path fill="#ce8b54" d="M18.767,14.601c-0.182-1.226-0.629-2.359-1.354-3.373c-0.826-1.157-1.93-1.967-3.248-2.468
		c-0.486-0.185-0.918-0.41-1.236-0.821c-0.059-0.075-0.111-0.181-0.111-0.273c-0.008-1.081-0.004-2.162-0.004-3.243
		c-0.002-0.807-0.211-1.551-0.643-2.236c-1.208-1.917-3.895-2.419-5.704-1.066C5.344,1.96,4.824,3.104,4.792,4.479
		c-0.023,0.999-0.007,2-0.001,2.999c0,0.13-0.038,0.219-0.129,0.31c-1.2,1.195-2.395,2.395-3.596,3.588
		c-0.166,0.165-0.228,0.349-0.152,0.56c0.095,0.27,0.193,0.542,0.331,0.79c0.492,0.884,1.125,1.666,1.796,2.416
		c1.203,1.346,2.497,2.594,3.998,3.605c0.405,0.272,0.86,0.475,1.306,0.681c0.254,0.118,0.479,0.037,0.688-0.174
		c2.443-2.453,4.892-4.898,7.341-7.347c0.051-0.051,0.104-0.1,0.189-0.181c0,0.118,0,0.187,0,0.255c0,1.594,0,3.188,0,4.78
		c0,0.473,0.178,0.853,0.582,1.107c0.385,0.244,0.789,0.258,1.188,0.028c0.42-0.241,0.648-0.617,0.623-1.098
		C18.917,16.065,18.876,15.327,18.767,14.601z M10.229,10.991c0,0.8-0.648,1.448-1.447,1.448s-1.447-0.648-1.447-1.448
		c0-0.799,0.648-1.447,1.447-1.447c0.264,0,0.506,0.075,0.719,0.198V7.918h0.729V10.991z M11.213,6.089
		c0,0.028-0.008,0.056-0.01,0.073C10.37,5.36,9.54,4.561,8.708,3.76c-0.72,0.721-1.468,1.472-2.251,2.257
		c-0.01-0.097-0.02-0.142-0.02-0.187C6.436,5.255,6.407,4.679,6.441,4.106c0.044-0.753,0.427-1.34,1.05-1.749
		c0.764-0.502,1.584-0.558,2.4-0.141c0.813,0.415,1.265,1.099,1.308,2.017C11.229,4.851,11.211,5.47,11.213,6.089z"/>
</g>
</svg>
