<?xml version="1.0" encoding="utf-8"?>
<!DOCTYPE svg PUBLIC "-//W3C//DTD SVG 1.1//EN" "http://www.w3.org/Graphics/SVG/1.1/DTD/svg11.dtd">
<svg version="1.1" id="Layer_1" xmlns="http://www.w3.org/2000/svg" xmlns:xlink="http://www.w3.org/1999/xlink" x="0px" y="0px" width="31.18px" height="31.18px" viewBox="0 0 31.18 31.18" enable-background="new 0 0 31.18 31.18" xml:space="preserve">
<g class="edsf_draggableIndicatorImage">
	<path fill="#dadada" d="M24.692,29.567h-3.316c-0.25,0-0.453-0.203-0.453-0.453s0.203-0.454,0.453-0.454h3.316
		c0.252,0,0.453,0.204,0.453,0.454S24.944,29.567,24.692,29.567z M18.187,29.567h-3.315c-0.25,0-0.453-0.203-0.453-0.453
		s0.203-0.454,0.453-0.454h3.315c0.25,0,0.455,0.204,0.455,0.454S18.437,29.567,18.187,29.567z M11.682,29.567H8.366
		c-0.25,0-0.454-0.203-0.454-0.453s0.203-0.454,0.454-0.454h3.316c0.25,0,0.453,0.204,0.453,0.454S11.932,29.567,11.682,29.567z
		 M5.177,29.567H5.173c-1.288,0-2.472-0.648-3.167-1.734c-0.135-0.211-0.073-0.491,0.138-0.625c0.211-0.136,0.491-0.074,0.626,0.137
		c0.527,0.824,1.425,1.315,2.403,1.315c0.25,0,0.454,0.204,0.454,0.454S5.427,29.567,5.177,29.567z M27.782,29.051
		c-0.15,0-0.295-0.074-0.383-0.209c-0.135-0.211-0.072-0.491,0.139-0.626c0.826-0.527,1.32-1.426,1.32-2.404v-0.015
		c0-0.25,0.201-0.452,0.451-0.452s0.453,0.202,0.453,0.452v0.015c0,1.289-0.648,2.473-1.736,3.168
		C27.95,29.028,27.866,29.051,27.782,29.051z M1.871,24.953c-0.25,0-0.454-0.203-0.454-0.454v-3.315c0-0.25,0.203-0.453,0.454-0.453
		c0.25,0,0.453,0.203,0.453,0.453v3.315C2.323,24.75,2.121,24.953,1.871,24.953z M29.31,23.062c-0.25,0-0.451-0.203-0.451-0.453
		v-3.316c0-0.25,0.201-0.453,0.451-0.453s0.453,0.203,0.453,0.453v3.316C29.763,22.858,29.56,23.062,29.31,23.062z M1.871,18.448
		c-0.25,0-0.454-0.203-0.454-0.453v-3.317c0-0.25,0.203-0.453,0.454-0.453c0.25,0,0.453,0.203,0.453,0.453v3.317
		C2.323,18.245,2.121,18.448,1.871,18.448z M29.31,16.557c-0.25,0-0.451-0.203-0.451-0.453v-3.317c0-0.25,0.201-0.453,0.451-0.453
		s0.453,0.203,0.453,0.453v3.317C29.763,16.354,29.56,16.557,29.31,16.557z M1.871,11.942c-0.25,0-0.454-0.204-0.454-0.454V8.173
		c0-0.251,0.203-0.453,0.454-0.453c0.25,0,0.453,0.202,0.453,0.453v3.315C2.323,11.738,2.121,11.942,1.871,11.942z M29.31,10.051
		c-0.25,0-0.451-0.204-0.451-0.454V6.281c0-0.251,0.201-0.453,0.451-0.453s0.453,0.202,0.453,0.453v3.315
		C29.763,9.847,29.56,10.051,29.31,10.051z M1.871,5.434c-0.25,0-0.454-0.2-0.454-0.449V4.976c0-1.285,0.647-2.467,1.731-3.163
		c0.21-0.135,0.49-0.074,0.625,0.137S3.848,2.44,3.637,2.575C2.814,3.104,2.323,4,2.323,4.976C2.323,5.227,2.121,5.434,1.871,5.434z
		 M28.788,3.646c-0.148,0-0.295-0.073-0.381-0.208c-0.527-0.822-1.424-1.312-2.4-1.312c-0.25,0-0.457-0.202-0.457-0.453
		c0-0.25,0.197-0.453,0.447-0.453h0.01c1.285,0,2.467,0.646,3.162,1.728c0.135,0.211,0.074,0.491-0.137,0.626
		C28.958,3.622,28.872,3.646,28.788,3.646z M22.808,2.127h-3.316c-0.248,0-0.453-0.202-0.453-0.453c0-0.25,0.205-0.453,0.453-0.453
		h3.316c0.25,0,0.453,0.203,0.453,0.453C23.261,1.925,23.058,2.127,22.808,2.127z M16.303,2.127h-3.316
		c-0.25,0-0.453-0.202-0.453-0.453c0-0.25,0.202-0.453,0.453-0.453h3.316c0.25,0,0.454,0.203,0.454,0.453
		C16.756,1.925,16.553,2.127,16.303,2.127z M9.798,2.127H6.481c-0.25,0-0.453-0.202-0.453-0.453c0-0.25,0.203-0.453,0.453-0.453
		h3.317c0.25,0,0.453,0.203,0.453,0.453C10.25,1.925,10.048,2.127,9.798,2.127z"/>
	<g>
		<path fill="#dadada" d="M13.969,11.265l0.891-0.876v3.275c0,0.403,0.327,0.73,0.73,0.73s0.73-0.327,0.73-0.73v-3.323l0.876,0.91
			c0.145,0.147,0.335,0.223,0.526,0.223c0.184,0,0.365-0.068,0.508-0.205c0.289-0.28,0.299-0.742,0.018-1.032l-2.075-2.153
			c-0.136-0.14-0.321-0.22-0.516-0.222c-0.194-0.004-0.382,0.072-0.522,0.208l-2.19,2.153c-0.288,0.282-0.292,0.744-0.009,1.032
			C13.219,11.542,13.681,11.547,13.969,11.265z"/>
		<path fill="#dadada" d="M17.197,19.538l-0.876,0.909v-3.323c0-0.403-0.327-0.73-0.73-0.73s-0.73,0.327-0.73,0.73v3.275
			l-0.891-0.876c-0.288-0.282-0.75-0.277-1.033,0.01c-0.283,0.288-0.278,0.75,0.009,1.032l2.19,2.153
			c0.137,0.134,0.321,0.209,0.513,0.209c0.003,0,0.006,0,0.009,0c0.195-0.003,0.38-0.083,0.516-0.223l2.075-2.152
			c0.281-0.291,0.271-0.753-0.018-1.033C17.94,19.239,17.478,19.248,17.197,19.538z"/>
	</g>
</g>
</svg>
