<?xml version="1.0" encoding="utf-8"?>
<!DOCTYPE svg PUBLIC "-//W3C//DTD SVG 1.1//EN" "http://www.w3.org/Graphics/SVG/1.1/DTD/svg11.dtd">
<svg version="1.1" id="Layer_1" xmlns="http://www.w3.org/2000/svg" xmlns:xlink="http://www.w3.org/1999/xlink" x="0px" y="0px"
	 width="413.86px" height="413.86px" viewBox="0 0 413.86 413.86" enable-background="new 0 0 413.86 413.86" xml:space="preserve">
<g>
	<path fill-rule="evenodd" clip-rule="evenodd" fill="#E3E3E2" d="M38.591,415.615c-13.449,0-26.897,0-40.346,0
		c0-139.124,0-278.247,0-417.371c139.124,0,278.247,0,417.37,0c0,139.123,0,278.247,0,417.371c-12.892,0-25.784,0-38.676,0
		c-0.003-0.462,0.029-0.926-0.012-1.384c-0.642-7.162-1.725-14.257-3.344-21.265c-2.307-9.982-5.591-19.605-10.587-28.589
		c-3.886-6.986-8.671-13.263-14.775-18.477c-5.309-4.536-11.311-7.875-17.819-10.362c-11.014-4.21-21.618-9.284-31.871-15.107
		c-7.779-4.419-15.631-8.71-23.389-13.165c-2.927-1.682-5.81-3.495-8.487-5.544c-6.608-5.054-12.048-11.244-16.831-18.026
		c-1.281-1.818-2.486-3.697-3.863-5.439c-2.44-3.089-5.597-5.128-9.506-5.826c-0.994-0.178-1.621-0.655-2.011-1.487
		c-0.589-1.258-1.061-2.571-1.669-3.818c-0.605-1.244-1.181-2.541-2.009-3.632c-2.867-3.776-4.203-7.995-4.051-12.716
		c0.181-5.605,0.33-11.212,0.526-16.817c0.147-4.216,0.343-8.43,0.523-12.644c0.084-1.961,0.781-2.511,2.757-2.258
		c0.732,0.095,1.477,0.127,2.216,0.136c1.117,0.015,2.046-0.383,2.848-1.208c1.711-1.763,3.516-3.436,5.221-5.203
		c3.217-3.333,5.55-7.165,6.505-11.764c0.575-2.767,1.239-5.514,1.83-8.277c1.595-7.47,1.064-14.933-0.11-22.391
		c-0.22-1.394-0.761-2.509-2.193-3.125c-1.19-0.513-1.638-1.599-1.456-2.881c0.09-0.639,0.244-1.275,0.435-1.893
		c1.522-4.96,3.046-9.92,4.599-14.871c1.788-5.696,2.091-11.463,0.843-17.296c-1.502-7.016-4.572-13.283-9.075-18.868
		c-3.083-3.824-6.104-7.698-9.165-11.542c-0.605-0.761-1.232-1.509-1.898-2.217c-1.481-1.572-3.162-2.873-5.288-3.451
		c-0.676-0.184-0.938-0.595-1.157-1.213c-0.618-1.744-1.319-3.458-1.98-5.187c-0.132-0.345-0.278-0.695-0.339-1.056
		c-0.338-1.999-1.378-3.611-2.707-5.081c-1.617-1.787-3.208-3.597-4.825-5.383c-0.932-1.031-1.855-2.075-2.848-3.046
		c-3.996-3.905-8.61-6.713-14.148-7.846c-3.177-0.65-6.348-1.331-9.53-1.956c-4.78-0.939-9.593-1.849-14.475-1.606
		c-4.48,0.223-8.955,0.742-13.406,1.327c-2.592,0.34-5.014,1.365-7.073,3.048c-0.965,0.789-2.04,1.253-3.233,1.52
		c-2.622,0.587-5.234,1.222-7.864,1.774c-4.757,0.999-9.074,2.911-12.827,6.034c-1.924,1.602-3.905,3.139-5.77,4.806
		c-3.041,2.719-5.956,5.58-9.027,8.262c-1.561,1.362-2.87,2.863-3.948,4.621c-1.988,3.239-4.072,6.419-6.058,9.66
		c-0.748,1.221-1.412,2.507-1.976,3.822c-1.495,3.483-2.252,7.17-2.521,10.925c-0.298,4.157-0.395,8.33-0.536,12.497
		c-0.093,2.733,0.079,5.489-0.201,8.2c-0.532,5.157-0.287,10.271,0.309,15.393c0.31,2.66,0.556,5.327,0.827,7.956
		c-1.049,0.342-2.063,0.541-2.95,0.99c-1.876,0.949-2.398,2.484-1.591,4.415c0.587,1.403,0.8,2.852,0.681,4.351
		c-0.077,0.969-0.227,1.933-0.34,2.899c-0.207,1.756-0.316,3.501,0.212,5.239c0.121,0.397,0.07,0.916-0.076,1.314
		c-1.054,2.869-1.177,5.818-0.64,8.774c0.479,2.64,1.208,5.234,1.745,7.865c0.441,2.161,1.266,4.149,2.288,6.09
		c0.884,1.678,1.64,3.424,2.444,5.144c0.392,0.84,0.749,1.695,1.145,2.533c0.776,1.645,2.029,2.619,3.894,2.688
		c1.017,0.037,2.035,0.057,3.052,0.078c0.454,0.009,0.907,0.001,1.383,0.001c0.08,0.224,0.175,0.39,0.195,0.563
		c0.505,4.419,0.982,8.842,1.509,13.259c0.362,3.034,0.641,6.09,1.221,9.085c1.792,9.255,5.282,17.837,10.584,25.655
		c0.771,1.137,1.241,2.363,1.488,3.706c0.318,1.731,0.692,3.452,1.038,5.179c1.392,6.954,2.751,13.916,3.004,21.028
		c0.085,2.402,0.007,4.813-0.066,7.219c-0.048,1.555-0.883,2.717-2.169,3.528c-0.979,0.617-1.996,1.177-3.019,1.719
		c-1.678,0.891-3.41,1.686-5.059,2.626c-8.311,4.742-16.977,8.72-25.858,12.261c-5.648,2.252-11.053,5.016-16.299,8.095
		c-4.703,2.76-9.012,6.029-12.93,9.815c-8.375,8.092-14.431,17.715-18.735,28.482c-4.62,11.559-6.957,23.622-7.749,35.996
		C38.635,406.712,38.69,411.169,38.591,415.615z"/>
	<path fill-rule="evenodd" clip-rule="evenodd" fill="#BCBCBC" d="M38.591,415.615c0.099-4.446,0.044-8.903,0.328-13.338
		c0.792-12.374,3.129-24.438,7.749-35.996c4.304-10.768,10.36-20.391,18.735-28.482c3.918-3.786,8.227-7.056,12.93-9.815
		c5.246-3.079,10.651-5.843,16.299-8.095c8.881-3.541,17.548-7.519,25.858-12.261c1.649-0.94,3.381-1.735,5.059-2.626
		c1.023-0.542,2.04-1.102,3.019-1.719c1.286-0.812,2.121-1.974,2.169-3.528c0.074-2.405,0.152-4.816,0.066-7.219
		c-0.252-7.112-1.612-14.074-3.004-21.028c-0.346-1.727-0.719-3.447-1.038-5.179c-0.247-1.343-0.717-2.569-1.488-3.706
		c-5.302-7.818-8.792-16.4-10.584-25.655c-0.58-2.995-0.858-6.051-1.221-9.085c-0.527-4.417-1.004-8.84-1.509-13.259
		c-0.02-0.174-0.116-0.34-0.195-0.563c-0.476,0-0.929,0.008-1.383-0.001c-1.017-0.021-2.035-0.041-3.052-0.078
		c-1.865-0.068-3.118-1.043-3.894-2.688c-0.396-0.838-0.753-1.693-1.145-2.533c-0.804-1.72-1.56-3.466-2.444-5.144
		c-1.022-1.94-1.847-3.929-2.288-6.09c-0.537-2.631-1.266-5.225-1.745-7.865c-0.537-2.956-0.414-5.905,0.64-8.774
		c0.146-0.398,0.197-0.917,0.076-1.314c-0.529-1.737-0.419-3.482-0.212-5.239c0.113-0.966,0.263-1.93,0.34-2.899
		c0.119-1.499-0.094-2.948-0.681-4.351c-0.808-1.93-0.285-3.465,1.591-4.415c0.887-0.449,1.901-0.648,2.95-0.99
		c-0.271-2.629-0.518-5.296-0.827-7.956c-0.596-5.123-0.841-10.236-0.309-15.393c0.279-2.711,0.108-5.466,0.201-8.2
		c0.142-4.167,0.238-8.34,0.536-12.497c0.27-3.755,1.027-7.442,2.521-10.925c0.564-1.315,1.229-2.602,1.976-3.822
		c1.985-3.241,4.07-6.42,6.058-9.66c1.079-1.757,2.388-3.258,3.948-4.621c3.072-2.683,5.986-5.543,9.027-8.262
		c1.865-1.667,3.846-3.205,5.77-4.806c3.753-3.124,8.07-5.035,12.827-6.034c2.629-0.553,5.242-1.187,7.864-1.774
		c1.193-0.267,2.268-0.731,3.233-1.52c2.059-1.683,4.481-2.708,7.073-3.048c4.451-0.585,8.925-1.104,13.406-1.327
		c4.882-0.243,9.695,0.667,14.475,1.606c3.182,0.625,6.353,1.306,9.53,1.956c5.539,1.133,10.152,3.94,14.148,7.846
		c0.992,0.971,1.916,2.015,2.848,3.046c1.617,1.787,3.208,3.597,4.825,5.383c1.329,1.469,2.369,3.082,2.707,5.081
		c0.061,0.361,0.207,0.71,0.339,1.056c0.661,1.729,1.362,3.443,1.98,5.187c0.22,0.619,0.481,1.03,1.157,1.213
		c2.126,0.578,3.807,1.878,5.288,3.451c0.666,0.708,1.293,1.457,1.898,2.217c3.061,3.843,6.082,7.717,9.165,11.542
		c4.503,5.585,7.573,11.852,9.075,18.868c1.248,5.833,0.945,11.6-0.843,17.296c-1.553,4.951-3.076,9.911-4.599,14.871
		c-0.19,0.618-0.345,1.254-0.435,1.893c-0.182,1.282,0.266,2.369,1.456,2.881c1.433,0.616,1.974,1.731,2.193,3.125
		c1.175,7.458,1.705,14.921,0.11,22.391c-0.591,2.764-1.255,5.511-1.83,8.277c-0.955,4.599-3.288,8.431-6.505,11.764
		c-1.705,1.768-3.51,3.44-5.221,5.203c-0.802,0.825-1.73,1.223-2.848,1.208c-0.739-0.009-1.483-0.041-2.216-0.136
		c-1.976-0.253-2.673,0.297-2.757,2.258c-0.181,4.214-0.376,8.428-0.523,12.644c-0.196,5.605-0.346,11.212-0.526,16.817
		c-0.152,4.721,1.184,8.939,4.051,12.716c0.828,1.091,1.403,2.388,2.009,3.632c0.608,1.247,1.08,2.561,1.669,3.818
		c0.39,0.832,1.017,1.31,2.011,1.487c3.909,0.698,7.065,2.737,9.506,5.826c1.377,1.742,2.582,3.621,3.863,5.439
		c4.783,6.782,10.223,12.973,16.831,18.026c2.678,2.049,5.561,3.862,8.487,5.544c7.758,4.455,15.609,8.746,23.389,13.165
		c10.253,5.823,20.857,10.897,31.871,15.107c6.509,2.487,12.511,5.826,17.819,10.362c6.104,5.214,10.89,11.49,14.775,18.477
		c4.996,8.983,8.28,18.606,10.587,28.589c1.619,7.008,2.702,14.103,3.344,21.265c0.041,0.458,0.009,0.922,0.012,1.384
		C264.156,415.615,151.374,415.615,38.591,415.615z"/>
</g>
</svg>
