<?xml version="1.0" encoding="utf-8"?>
<!-- Generator: Adobe Illustrator 20.0.0, SVG Export Plug-In . SVG Version: 6.00 Build 0)  -->
<svg version="1.1" id="Layer_1" xmlns="http://www.w3.org/2000/svg" xmlns:xlink="http://www.w3.org/1999/xlink" x="0px" y="0px"
	 viewBox="0 0 2048 2048" style="enable-background:new 0 0 2048 2048;" xml:space="preserve">
<style type="text/css">
	.st0{fill:#1486C3;}
</style>
<g>
	<path class="st0" d="M1782.6,917.2c-47.5-409.3-419.1-703.6-828.4-656.1C606.8,301.5,343,575.7,300.1,908
		c10.5-43.5,25-86.7,44.4-128.9C504.2,430.3,912,274.5,1262.8,423.8c3.9,1.5,7.7,3,11.6,4.6c2.1,0.9,4.2,1.5,6.3,2.5
		c1.8,0.8,3.4,1.9,5.1,2.7c96.6,41.8,181.1,107.6,245.4,190.8c83.7,101.8,137.2,224.7,154.8,354.5c11.8,7.2,25.8,10.9,40.5,9.2
		C1761.6,984,1786.7,952.3,1782.6,917.2z"/>
	<path class="st0" d="M785.2,1624.2c-3.9-1.5-7.7-3-11.6-4.6c-2.1-0.9-4.2-1.5-6.3-2.5c-1.8-0.8-3.4-1.9-5.1-2.7
		c-96.6-41.8-181.1-107.5-245.4-190.8c-83.7-101.8-137.2-224.7-154.8-354.5c-11.8-7.2-25.8-10.9-40.5-9.2
		c-35.1,4.1-60.2,35.8-56.1,70.9c47.5,409.3,419.1,703.6,828.4,656.1c347.5-40.3,611.3-314.6,654.1-646.9
		c-10.5,43.5-25,86.7-44.4,128.9C1543.8,1617.7,1136,1773.5,785.2,1624.2z"/>
</g>
</svg>
