<?xml version="1.0" encoding="utf-8"?>
<!-- Generator: Adobe Illustrator 20.0.0, SVG Export Plug-In . SVG Version: 6.00 Build 0)  -->
<svg version="1.1" id="Layer_1" xmlns="http://www.w3.org/2000/svg" xmlns:xlink="http://www.w3.org/1999/xlink" x="0px" y="0px"
	 viewBox="0 0 2048 2048" style="enable-background:new 0 0 2048 2048;" xml:space="preserve">
<style type="text/css">
	.st0{fill:#C8C8C8;}
</style>
<g >
	<rect x="2266.8" y="1858.7" class="st0" width="7.1" height="7.1"/>
	<rect x="2276.7" y="1858.7" class="st0" width="7.1" height="1.9"/>
	<rect x="2266.8" y="1868.6" class="st0" width="7.1" height="7.1"/>
	<rect x="2276.7" y="1862.2" class="st0" width="7.1" height="1.9"/>
	<rect x="2276.7" y="1868.6" class="st0" width="7.1" height="1.9"/>
	<rect x="2276.7" y="1872.2" class="st0" width="7.1" height="1.9"/>
</g>
<g>
	<path class="st0" d="M1771.5,635.5l-398-376.7H480.9v206.4H276.5v1536.8h1290.7v-206.4h204.4V635.5z M1430.6,445l117.6,117.6h-117.6V445z
		 M1438.3,1875.4H415.9V578.9h65v1216.7h957.4V1875.4z M1642.7,1669H620.2V372.5H1326v294.6h316.6V1669z"/>
	<polygon class="st0" points="1181.5,970.4 1137.3,1014.5 1242.8,1120 1046,1316.9 911.8,1182.7 979.3,1115.2 939.6,1075.5 827.2,1187.8 
		1042.6,1403.2 1328.5,1117.4 	"/>
	<polygon class="st0" points="970.2,1044.9 1117.1,1191.9 1161.3,1147.7 1055.8,1042.2 1252.6,845.4 1386.9,979.6 1319.3,1047.1 1359,1086.8 
		1471.4,974.4 1256,759 	"/>
	<path class="st0" d="M1409.2,1287.6h-98.9v225.2h39.5v-84.1h59.4c46.9,0,73.6-32.4,73.6-70.6C1482.8,1320,1456.4,1287.6,1409.2,1287.6z
		 M1403.8,1393.9h-54v-71.6h54c22.3,0,38.5,14.2,38.5,35.8S1426.1,1393.9,1403.8,1393.9z"/>
</g>
</svg>
