<?xml version="1.0" encoding="utf-8"?>
<!-- Generator: Adobe Illustrator 20.0.0, SVG Export Plug-In . SVG Version: 6.00 Build 0)  -->
<svg version="1.1" id="Layer_1" xmlns="http://www.w3.org/2000/svg" xmlns:xlink="http://www.w3.org/1999/xlink" x="0px" y="0px"
	 viewBox="0 0 2048 2048" style="enable-background:new 0 0 2048 2048;" xml:space="preserve">
<style type="text/css">
	.st0{fill:#C8C8C8;}
</style>
<g>
	<rect x="2266.8" y="1858.7" class="st0" width="7.1" height="7.1"/>
	<rect x="2276.7" y="1858.7" class="st0" width="7.1" height="1.9"/>
	<rect x="2266.8" y="1868.6" class="st0" width="7.1" height="7.1"/>
	<rect x="2276.7" y="1862.2" class="st0" width="7.1" height="1.9"/>
	<rect x="2276.7" y="1868.6" class="st0" width="7.1" height="1.9"/>
	<rect x="2276.7" y="1872.2" class="st0" width="7.1" height="1.9"/>
</g>
<g>
	<path class="st0" d="M1270.7,259.4H380.5v1532.5h1287.1V635.1L1270.7,259.4z M1327.5,445.1l117.3,117.3h-117.3V445.1z M1539,1665.7H519.5V372.8
		h703.8v293.8H1539V1665.7z"/>
	<polygon class="st0" points="1035.1,1013.1 1140.3,1118.3 944,1314.6 810.2,1180.7 877.5,1113.4 837.9,1073.8 725.9,1185.9 940.6,1400.7 
		1225.7,1115.6 1079.1,969 	"/>
	<polygon class="st0" points="868.4,1043.4 1015,1189.9 1059,1145.9 953.8,1040.7 1150.1,844.4 1283.9,978.2 1216.6,1045.5 1256.2,1085.1 
		1368.3,973.1 1153.5,758.3 	"/>
</g>
</svg>
