<?xml version="1.0" encoding="utf-8"?>
<!-- Generator: Adobe Illustrator 20.0.0, SVG Export Plug-In . SVG Version: 6.00 Build 0)  -->
<svg version="1.1" id="Layer_1" xmlns="http://www.w3.org/2000/svg" xmlns:xlink="http://www.w3.org/1999/xlink" x="0px" y="0px"
	 viewBox="0 0 2048 2048" style="enable-background:new 0 0 2048 2048;" xml:space="preserve">
<style type="text/css">
	.st0{fill:#C8C8C8;}
</style>
<g>
	<rect x="2266.8" y="1858.7" class="st0" width="7.1" height="7.1"/>
	<rect x="2276.7" y="1858.7" class="st0" width="7.1" height="1.9"/>
	<rect x="2266.8" y="1868.6" class="st0" width="7.1" height="7.1"/>
	<rect x="2276.7" y="1862.2" class="st0" width="7.1" height="1.9"/>
	<rect x="2276.7" y="1868.6" class="st0" width="7.1" height="1.9"/>
	<rect x="2276.7" y="1872.2" class="st0" width="7.1" height="1.9"/>
</g>
<g>
	<path class="st0" d="M1270.8,258.8H380.2v1533.1h1287.6V634.6L1270.8,258.8z M1327.7,444.7L1445,561.9h-117.3V444.7z M1539.2,1665.7h-1020
		V372.3h704.1v293.9h315.9V1665.7z"/>
	<polygon class="st0" points="719.7,995.6 1106.3,1382.1 1136.9,1351.5 795,1009.7 795,1009.7 786,1000.7 928.9,857.8 937.9,866.8 941.7,870.6 
		1263.5,1192.4 1276.3,1205.2 1285.3,1214.2 1201.9,1297.6 1192.8,1288.5 1192.5,1288.8 939.6,1035.8 954.8,1020.7 954.7,1020.6 
		965.6,1009.7 1143.4,1187.4 1175.9,1154.9 962.7,941.8 872.1,1032.4 1205.2,1365.6 1353.3,1217.5 1241.2,1105.4 925.6,789.7 	"/>
</g>
</svg>
