<?xml version="1.0" encoding="utf-8"?>
<!-- Generator: Adobe Illustrator 20.0.0, SVG Export Plug-In . SVG Version: 6.00 Build 0)  -->
<svg version="1.1" id="Layer_1" xmlns="http://www.w3.org/2000/svg" xmlns:xlink="http://www.w3.org/1999/xlink" x="0px" y="0px"
	 viewBox="0 0 2048 2048" style="enable-background:new 0 0 2048 2048;" xml:space="preserve">
<style type="text/css">
	.st0{fill:#FFFFFF;}
	.st1{fill:#00A8E1;}
	.st2{fill:#EB0029;}
</style>
<g>
	<polygon class="st0" points="889.2,791 810.7,1011.9 809.3,1011.9 730.9,791 621.2,791 759,1145.3 860.5,1145.3 998.9,791 	"/>
	<path class="st0" d="M1690.7,791v38.9h-1.3c-7.7-12.7-35.8-51-104.7-51c-97.1,0-178.1,73.5-178.1,196c0,101.5,70.8,181.9,171,181.9
		c67.6,0,95.1-31.3,107.2-47.9h1.3v154.5h106V791H1690.7z M1603.4,1061.1c-60.8,0-91.3-52.3-91.3-90.7c0-48.2,33.7-95.8,90.8-95.8
		c53.8,0,88.3,45.8,88.3,93.9C1691.2,1012.1,1657.1,1061.1,1603.4,1061.1z"/>
	<path class="st0" d="M444.9,779.2c-104.4,0-188.9,84.6-188.9,188.9S340.4,1157,444.9,1157c79.6,0,147.6-49.4,175.5-119.2H514.7v0.1
		c-17.6,19.1-42.3,31.2-69.7,31.2c-42.7,0-78.8-28.8-91.8-68.7h277.6c1.9-10.5,3-21.3,3-32.3C633.8,863.8,549.2,779.2,444.9,779.2z
		 M355.7,928.8c14.7-36.1,49.1-61.6,89.3-61.6c40.1,0,74.6,25.4,89.3,61.6H355.7z"/>
	<path class="st0" d="M1095.4,1058.8c-44-10.8-80.3-41.1-99.3-81.3c4.7,96.6,81.8,174.2,178.2,179.7
		C1135.2,1138,1106,1102.1,1095.4,1058.8z"/>
	<path class="st0" d="M1194.8,779c40.2,19,70.6,55.5,81.3,99.6c43.3,10.7,79.2,40.3,98.4,79.5C1369.5,861.2,1291.7,783.7,1194.8,779
		z"/>
</g>
<path class="st1" d="M1374.8,968.2c0-3.4-0.1-6.8-0.2-10.2c-19.1-39.2-55-68.8-98.4-79.5c2.8,11.3,4.2,23.2,4.2,35.4
	c0,82.4-66.8,149.3-149.2,149.3c-12.3,0-24.3-1.5-35.8-4.4c10.5,43.3,39.9,79.2,78.9,98.5c3.7,0.2,7.4,0.3,11,0.3
	C1290,1157.6,1374.8,1072.8,1374.8,968.2z"/>
<path class="st2" d="M1240.4,874.2c12.3,0,24.4,1.5,35.8,4.3c-10.7-44.1-41.1-80.6-81.3-99.6c-3.1-0.2-6.2-0.3-9.5-0.3
	c-104.6,0-189.4,84.8-189.4,189.5c0,3.2,0.1,6.3,0.2,9.4c19,40.1,55.3,70.5,99.3,81.3c-2.8-11.3-4.3-23.2-4.3-35.4
	C1091.2,941,1158,874.2,1240.4,874.2z"/>
</svg>
