<svg version="1.1" xmlns="http://www.w3.org/2000/svg" xmlns:xlink="http://www.w3.org/1999/xlink" x="0px" y="0px"
	 viewBox="0 0 2048 2048" style="enable-background:new 0 0 2048 2048;" xml:space="preserve">
<circle class="back" cx="1024" cy="1024" r="1024"/>
<g>
	<path class="main" d="M1024,418c-334.7,0-606,271.3-606,606s271.3,606,606,606s606-271.3,606-606S1358.7,418,1024,418z
		 M1200.5,1184.3c-30.1,67.8-97.7,115.2-176.5,115.2s-146.4-47.4-176.5-115.2H583.6c-18.2-49.9-28.1-104-28.1-160.1
		c0-258.7,209.8-468.5,468.5-468.5s468.5,209.7,468.5,468.5c0,56.3-10,110.2-28.1,160.1H1200.5z"/>
	<path class="main" d="M1190.4,705.3c-11.8-5.3-33.7,12.9-48.3,40.2l-143.6,280.6c-34.1,10.9-59,42.5-59,80.1
		c0,46.6,37.9,84.4,84.4,84.4c46.6,0,84.4-37.8,84.4-84.4c0-17-5.2-33-14-46.3l100.8-291.7C1204.7,738.8,1202.7,710.5,1190.4,705.3z
		"/>
</g>
</svg>
