<svg version="1.1" xmlns="http://www.w3.org/2000/svg" xmlns:xlink="http://www.w3.org/1999/xlink" x="0px" y="0px"
	 viewBox="0 0 2048 2048" style="enable-background:new 0 0 2048 2048;" xml:space="preserve">
<circle class="back" cx="1024" cy="1024" r="1024"/>
<g>
	<path class="main" d="M551.7,1194.4c55.7,0,100.9-45.2,100.9-100.9c0-5.3-0.8-10.4-1.6-15.5l160.4-141.1c8.9,2.5,18.1,4.4,27.9,4.4
		c24.1,0,46.1-8.9,63.5-23.1l145.6,48c11.1,43.6,50.4,76,97.5,76c55.7,0,100.9-45.2,100.9-100.9c0-10.4-2-20.1-4.9-29.6l187.6-221.1
		c4.4,0.5,8.9,1.3,13.5,1.3c55.7,0,100.9-45.2,100.9-100.9s-45.2-100.9-100.9-100.9c-55.7,0-100.9,45.2-100.9,100.9
		c0,10.4,2,20.1,4.9,29.5l-187.6,221.2c-4.4-0.7-8.9-1.3-13.5-1.3c-24.1,0-46.1,8.9-63.5,23.1l-145.6-48c-11.1-43.6-50.4-76-97.5-76
		c-55.7,0-100.9,45.2-100.9,100.9c0,5.3,0.8,10.4,1.6,15.3L579.6,996.8c-8.9-2.5-18.1-4.4-27.9-4.4c-55.7,0-100.9,45.2-100.9,100.9
		C450.8,1149.3,496,1194.4,551.7,1194.4z"/>
	<rect x="460.9" y="1331.6" class="main" width="1093.1" height="135.9"/>
</g>
</svg>
