<?xml version="1.0" encoding="utf-8"?>
<!-- Generator: Adobe Illustrator 20.0.0, SVG Export Plug-In . SVG Version: 6.00 Build 0)  -->
<svg version="1.1" id="Layer_1" xmlns="http://www.w3.org/2000/svg" xmlns:xlink="http://www.w3.org/1999/xlink" x="0px" y="0px" width="16px" height="16px"
	 viewBox="0 0 2048 2048" style="enable-background:new 0 0 2048 2048;" xml:space="preserve">
<style type="text/css">
	.st0{fill:#000;}
</style>
<g>
	<polygon class="st0" points="1790.5,257 1633.5,257 1341,257 1341,415 1633.5,415 1633.5,708 1791.5,708 1791.5,257 	"/>
	<polygon class="st0" points="414.5,415 707,415 707,257 414.5,257 256.5,257 256.5,415 256.5,708 414.5,708 	"/>
	<polygon class="st0" points="1633.5,1634 1341,1634 1341,1792 1790.5,1792 1790.5,1791 1791.5,1791 1791.5,1342 1633.5,1342 	"/>
	<polygon class="st0" points="414.5,1342 256.5,1342 256.5,1634 256.5,1791 256.5,1792 707,1792 707,1634 414.5,1634 	"/>
	<rect x="621" y="621" class="st0" width="806" height="806"/>
</g>
</svg>
